<svg xmlns="http://www.w3.org/2000/svg" width="24" height="24" viewBox="0 0 24 24" fill="none">
<path d="M20.0953 6.28647H3.90479M18.5077 8.66742L18.0696 15.2388C17.901 17.7665 17.8172 19.0303 16.9934 19.8007C16.1696 20.5712 14.9019 20.5722 12.3686 20.5722H11.6315C9.09812 20.5722 7.8305 20.5722 7.00669 19.8007C6.18288 19.0303 6.09812 17.7665 5.9305 15.2388L5.4924 8.66742M9.30479 4.3817C9.50155 3.82405 9.86644 3.34117 10.3492 2.9996C10.8319 2.65803 11.4087 2.47461 12 2.47461C12.5914 2.47461 13.1682 2.65803 13.6509 2.9996C14.1336 3.34117 14.4985 3.82405 14.6953 4.3817" stroke="currentColor" stroke-width="1.5" stroke-linecap="round"/>
</svg>