<svg xmlns="http://www.w3.org/2000/svg" width="24" height="24" viewBox="0 0 24 24" fill="none">
<path d="M19.7551 17.9173C19.7551 18.4044 19.5616 18.8716 19.2172 19.2161C18.8727 19.5605 18.4055 19.754 17.9184 19.754H13.8368C13.6744 19.754 13.5187 19.8185 13.4038 19.9333C13.289 20.0482 13.2245 20.2039 13.2245 20.3663C13.2245 20.5286 13.289 20.6844 13.4038 20.7992C13.5187 20.914 13.6744 20.9785 13.8368 20.9785H17.9184C18.7303 20.9785 19.5089 20.656 20.083 20.0819C20.6571 19.5078 20.9796 18.7292 20.9796 17.9173V6.08056C20.9796 5.26867 20.6571 4.49004 20.083 3.91595C19.5089 3.34186 18.7303 3.01934 17.9184 3.01934H6.08166C5.26977 3.01934 4.49114 3.34186 3.91705 3.91595C3.34295 4.49004 3.02044 5.26867 3.02044 6.08056V10.1622C3.02044 10.3246 3.08494 10.4803 3.19976 10.5951C3.31458 10.7099 3.4703 10.7744 3.63268 10.7744C3.79506 10.7744 3.95078 10.7099 4.0656 10.5951C4.18042 10.4803 4.24492 10.3246 4.24492 10.1622V6.08056C4.24492 5.59343 4.43844 5.12625 4.78289 4.78179C5.12735 4.43734 5.59453 4.24383 6.08166 4.24383H12V9.75403C12 10.3494 12.2365 10.9204 12.6575 11.3414C13.0785 11.7624 13.6495 11.9989 14.2449 11.9989H19.7551V17.9173ZM19.7551 10.7744H14.2449C13.6817 10.7744 13.2245 10.3173 13.2245 9.75403V4.24383H17.9184C18.4055 4.24383 18.8727 4.43734 19.2172 4.78179C19.5616 5.12625 19.7551 5.59343 19.7551 6.08056V10.7744ZM10.7755 20.3663C10.7755 20.5286 10.711 20.6844 10.5962 20.7992C10.4814 20.914 10.3257 20.9785 10.1633 20.9785H3.63268C3.4703 20.9785 3.31458 20.914 3.19976 20.7992C3.08494 20.6844 3.02044 20.5286 3.02044 20.3663V13.8357C3.02044 13.7553 3.03627 13.6756 3.06704 13.6014C3.09781 13.5271 3.1429 13.4596 3.19976 13.4027C3.25661 13.3459 3.3241 13.3008 3.39838 13.27C3.47267 13.2393 3.55228 13.2234 3.63268 13.2234C3.71308 13.2234 3.79269 13.2393 3.86698 13.27C3.94126 13.3008 4.00875 13.3459 4.0656 13.4027C4.12246 13.4596 4.16755 13.5271 4.19832 13.6014C4.22909 13.6756 4.24492 13.7553 4.24492 13.8357V18.8887L9.32247 13.8112C9.37852 13.751 9.44612 13.7028 9.52122 13.6693C9.59632 13.6358 9.67739 13.6179 9.7596 13.6164C9.84181 13.615 9.92346 13.6301 9.9997 13.6609C10.0759 13.6917 10.1452 13.7375 10.2033 13.7956C10.2615 13.8538 10.3073 13.923 10.3381 13.9993C10.3689 14.0755 10.384 14.1571 10.3825 14.2394C10.3811 14.3216 10.3631 14.4026 10.3296 14.4777C10.2962 14.5528 10.2479 14.6204 10.1878 14.6765L5.11023 19.754H10.1633C10.3257 19.754 10.4814 19.8185 10.5962 19.9333C10.711 20.0482 10.7755 20.2039 10.7755 20.3663Z" fill="currentColor" />
</svg>