<svg xmlns="http://www.w3.org/2000/svg" width="79" height="15" viewBox="0 0 79 15" >
<path d="M0.75 14C0.645833 13.8698 0.59375 13.7005 0.59375 13.4922C0.59375 13.3229 0.619792 13.2122 0.671875 13.1602L7.85938 2.30078H4.51953C4.05078 2.30078 3.66016 2.34635 3.34766 2.4375C3.04818 2.52865 2.80078 2.69141 2.60547 2.92578C2.47526 3.08203 2.37109 3.21875 2.29297 3.33594C2.22786 3.4401 2.16927 3.5638 2.11719 3.70703C2.0651 3.83724 1.98698 4.03255 1.88281 4.29297L1.78516 4.54688C1.77214 4.625 1.6875 4.66406 1.53125 4.66406C1.15365 4.66406 0.938802 4.63802 0.886719 4.58594C1.19922 2.91927 1.39453 1.7474 1.47266 1.07031C1.78516 1.14844 2.83984 1.1875 4.63672 1.1875H6.76562C7.36458 1.1875 8.04167 1.17448 8.79688 1.14844C9.55208 1.10938 10.3854 1.05729 11.2969 0.992188C11.3359 1.00521 11.375 1.08984 11.4141 1.24609C11.4661 1.40234 11.4922 1.53255 11.4922 1.63672L4.36328 12.3984C4.27214 12.5286 4.22656 12.6263 4.22656 12.6914C4.22656 12.8216 4.31771 12.8867 4.5 12.8867H7.60547C8.51693 12.8867 9.25911 12.6719 9.83203 12.2422C10.418 11.7995 10.8216 11.2526 11.043 10.6016C11.082 10.5234 11.1667 10.4844 11.2969 10.4844C11.6094 10.4844 11.8112 10.5234 11.9023 10.6016C11.8242 10.8229 11.7135 11.1289 11.5703 11.5195C11.4401 11.9102 11.3359 12.2227 11.2578 12.457C11.1797 12.6914 11.0951 12.9583 11.0039 13.2578C10.9258 13.5443 10.8737 13.7917 10.8477 14H0.75ZM17.0977 14.1367C16.3034 14.1367 15.5677 13.9349 14.8906 13.5312C14.2266 13.1276 13.6927 12.5872 13.2891 11.9102C12.8984 11.2331 12.7031 10.4909 12.7031 9.68359C12.7031 8.85026 12.8789 8.10156 13.2305 7.4375C13.5951 6.77344 14.0964 6.24609 14.7344 5.85547C15.3724 5.46484 16.1081 5.26953 16.9414 5.26953C17.7617 5.26953 18.4583 5.46484 19.0312 5.85547C19.6172 6.23307 20.0599 6.70833 20.3594 7.28125C20.6719 7.84115 20.8281 8.40755 20.8281 8.98047C20.8281 9.27995 20.763 9.47526 20.6328 9.56641C20.5156 9.65755 20.2747 9.70312 19.9102 9.70312H15.4961C15.418 9.70312 15.3789 9.7487 15.3789 9.83984C15.3789 10.3086 15.4635 10.7513 15.6328 11.168C15.8151 11.5846 16.0755 11.9232 16.4141 12.1836C16.7656 12.444 17.1888 12.5742 17.6836 12.5742C18.1263 12.5742 18.5365 12.5091 18.9141 12.3789C19.1745 12.3008 19.3763 12.2292 19.5195 12.1641C19.6628 12.099 19.793 12.0273 19.9102 11.9492C20.0404 11.8581 20.1901 11.7474 20.3594 11.6172C20.4766 11.6693 20.5352 11.793 20.5352 11.9883C20.5352 12.1576 20.5091 12.2878 20.457 12.3789C20.3789 12.5872 20.1706 12.8281 19.832 13.1016C19.5065 13.375 19.1029 13.6159 18.6211 13.8242C18.1523 14.0326 17.6445 14.1367 17.0977 14.1367ZM15.5156 8.62891H17.9961C18.1784 8.62891 18.2695 8.50521 18.2695 8.25781C18.2695 7.76302 18.1328 7.32031 17.8594 6.92969C17.599 6.53906 17.2604 6.34375 16.8438 6.34375C16.4661 6.34375 16.1667 6.48047 15.9453 6.75391C15.737 7.01432 15.5872 7.30729 15.4961 7.63281C15.418 7.95833 15.3789 8.22526 15.3789 8.43359C15.3789 8.5638 15.4245 8.62891 15.5156 8.62891ZM21.8828 14.0781C21.8307 14.026 21.8047 13.8893 21.8047 13.668C21.8047 13.4596 21.8307 13.3555 21.8828 13.3555C21.987 13.3555 22.1302 13.3294 22.3125 13.2773C22.5078 13.2122 22.6901 13.1406 22.8594 13.0625C23.0417 12.9844 23.1393 12.9193 23.1523 12.8672C23.2435 12.5026 23.2891 12.0078 23.2891 11.3828V8.70703C23.2891 7.97786 23.1719 7.48958 22.9375 7.24219C22.8333 7.11198 22.6901 7.02083 22.5078 6.96875C22.3385 6.91667 22.1888 6.88411 22.0586 6.87109C21.9284 6.84505 21.8633 6.81901 21.8633 6.79297C21.8633 6.33724 21.8958 6.10938 21.9609 6.10938C22.2995 6.10938 22.7812 6.03776 23.4062 5.89453C24.0312 5.73828 24.7409 5.57552 25.5352 5.40625L25.6328 5.38672C25.6458 5.3737 25.6719 5.36719 25.7109 5.36719L25.75 5.34766C25.8151 5.34766 25.8802 5.39323 25.9453 5.48438C26.0234 5.5625 26.056 5.6276 26.043 5.67969L25.9648 6.28516C25.9648 6.35026 25.9714 6.38932 25.9844 6.40234C26.0104 6.40234 26.056 6.36979 26.1211 6.30469C26.8372 5.6276 27.7422 5.28906 28.8359 5.28906C29.5911 5.28906 30.2031 5.60807 30.6719 6.24609C31.1536 6.88411 31.3945 7.85417 31.3945 9.15625V11.0898C31.3945 11.9492 31.4401 12.5417 31.5312 12.8672C31.5573 12.9193 31.6549 12.9844 31.8242 13.0625C31.9935 13.1406 32.1693 13.2122 32.3516 13.2773C32.5469 13.3294 32.6836 13.3555 32.7617 13.3555C32.7878 13.3555 32.8073 13.4076 32.8203 13.5117C32.8333 13.6159 32.8398 13.7266 32.8398 13.8438C32.8398 13.9609 32.8268 14.0391 32.8008 14.0781C32.7227 14.0781 32.5729 14.0651 32.3516 14.0391C32.1302 14.026 31.8698 14.013 31.5703 14C31.2839 13.974 31.0104 13.9544 30.75 13.9414C30.4896 13.9284 30.2812 13.9219 30.125 13.9219C29.9167 13.9219 29.6237 13.9349 29.2461 13.9609C28.8815 13.987 28.5299 14.0065 28.1914 14.0195C27.8529 14.0456 27.6315 14.0651 27.5273 14.0781C27.4753 14.026 27.4492 13.8893 27.4492 13.668C27.4492 13.4596 27.4753 13.3555 27.5273 13.3555C27.6315 13.3555 27.7682 13.3294 27.9375 13.2773C28.1198 13.2122 28.2891 13.1406 28.4453 13.0625C28.6146 12.9844 28.7057 12.9193 28.7188 12.8672C28.8099 12.5026 28.8555 12.0078 28.8555 11.3828V9.625C28.8555 8.66146 28.7188 7.97786 28.4453 7.57422C28.1849 7.15755 27.7617 6.94922 27.1758 6.94922C26.7721 6.94922 26.4466 7.02734 26.1992 7.18359C25.9518 7.32682 25.8281 7.53516 25.8281 7.80859V11.0898C25.8281 11.9492 25.8737 12.5417 25.9648 12.8672C25.9909 12.9193 26.082 12.9844 26.2383 13.0625C26.3945 13.1406 26.5638 13.2122 26.7461 13.2773C26.9284 13.3294 27.0521 13.3555 27.1172 13.3555C27.1432 13.3555 27.1628 13.4076 27.1758 13.5117C27.1888 13.6159 27.1953 13.7266 27.1953 13.8438C27.1953 13.9609 27.1823 14.0391 27.1562 14.0781C27.0521 14.0651 26.8307 14.0456 26.4922 14.0195C26.1536 14.0065 25.7956 13.987 25.418 13.9609C25.0534 13.9349 24.7669 13.9219 24.5586 13.9219C24.4023 13.9219 24.1875 13.9284 23.9141 13.9414C23.6536 13.9544 23.3802 13.974 23.0938 14C22.8073 14.013 22.5534 14.026 22.332 14.0391C22.1107 14.0651 21.9609 14.0781 21.8828 14.0781ZM33.8555 14.0781C33.8034 14.026 33.7773 13.9023 33.7773 13.707C33.7773 13.5117 33.8034 13.4141 33.8555 13.4141C33.9596 13.4141 34.0964 13.388 34.2656 13.3359C34.4349 13.2839 34.5977 13.2188 34.7539 13.1406C34.9102 13.0625 34.9948 12.9909 35.0078 12.9258C35.099 12.5612 35.1445 12.0664 35.1445 11.4414V8.58984C35.1445 7.86068 35.0273 7.3724 34.793 7.125C34.6888 6.99479 34.5456 6.90365 34.3633 6.85156C34.194 6.79948 34.0443 6.76693 33.9141 6.75391C33.7839 6.72786 33.7188 6.70182 33.7188 6.67578C33.7188 6.29818 33.7513 6.10938 33.8164 6.10938C33.9336 6.10938 34.1484 6.08333 34.4609 6.03125C34.7734 5.97917 35.1185 5.91406 35.4961 5.83594C35.8867 5.75781 36.2513 5.67969 36.5898 5.60156C36.9414 5.52344 37.2083 5.45833 37.3906 5.40625L37.6055 5.34766C37.6706 5.34766 37.7357 5.39323 37.8008 5.48438C37.8659 5.5625 37.8984 5.6276 37.8984 5.67969C37.8333 6.2526 37.7812 6.70182 37.7422 7.02734C37.7031 7.35286 37.6836 7.55469 37.6836 7.63281V11.1484C37.6836 11.8906 37.7357 12.4831 37.8398 12.9258C37.8659 12.9779 37.9505 13.043 38.0938 13.1211C38.25 13.1992 38.4128 13.2708 38.582 13.3359C38.7513 13.388 38.8685 13.4141 38.9336 13.4141C38.9727 13.4141 38.9922 13.5117 38.9922 13.707C39.0052 13.9023 38.9987 14.026 38.9727 14.0781C38.8685 14.0651 38.6471 14.0456 38.3086 14.0195C37.9831 14.0065 37.638 13.987 37.2734 13.9609C36.9089 13.9349 36.6224 13.9219 36.4141 13.9219C36.2057 13.9219 35.9193 13.9349 35.5547 13.9609C35.1901 13.987 34.8451 14.0065 34.5195 14.0195C34.194 14.0456 33.9727 14.0651 33.8555 14.0781ZM36.3164 3.41406C35.9128 3.41406 35.5677 3.27734 35.2812 3.00391C35.0078 2.71745 34.8711 2.3724 34.8711 1.96875C34.8711 1.5651 35.0078 1.22656 35.2812 0.953125C35.5677 0.666667 35.9128 0.523438 36.3164 0.523438C36.7201 0.523438 37.0586 0.666667 37.332 0.953125C37.6185 1.22656 37.7617 1.5651 37.7617 1.96875C37.7617 2.3724 37.6185 2.71745 37.332 3.00391C37.0586 3.27734 36.7201 3.41406 36.3164 3.41406ZM43.9531 14.1367C43.237 14.1367 42.6185 13.9154 42.0977 13.4727C41.5898 13.0169 41.3359 12.2878 41.3359 11.2852V6.77344H40.0664C39.9622 6.77344 39.9102 6.57161 39.9102 6.16797C39.9102 6.07682 39.9232 6.00521 39.9492 5.95312C40.3138 5.77083 40.6393 5.59505 40.9258 5.42578C41.2253 5.24349 41.4857 5.06771 41.707 4.89844C42.2799 4.44271 42.6966 4.09766 42.957 3.86328C43.2174 3.62891 43.3542 3.50521 43.3672 3.49219C43.4714 3.49219 43.582 3.51823 43.6992 3.57031C43.8164 3.60938 43.875 3.65495 43.875 3.70703V5.62109H45.9844C46.0885 5.62109 46.1406 5.6862 46.1406 5.81641C46.1406 6.20703 46.0755 6.52604 45.9453 6.77344H43.875V11.4023C43.875 12.3919 44.2266 12.8867 44.9297 12.8867C45.2943 12.8867 45.5482 12.8411 45.6914 12.75C45.8477 12.6458 45.9518 12.5938 46.0039 12.5938C46.056 12.5938 46.1081 12.6589 46.1602 12.7891C46.2253 12.9193 46.2578 13.0169 46.2578 13.082C46.2578 13.1862 46.1276 13.3229 45.8672 13.4922C45.6198 13.6615 45.3138 13.8112 44.9492 13.9414C44.5977 14.0716 44.2656 14.1367 43.9531 14.1367ZM47.332 14.0781C47.2799 14.026 47.2539 13.8893 47.2539 13.668C47.2539 13.4596 47.2799 13.3555 47.332 13.3555C47.4362 13.3555 47.5859 13.3294 47.7812 13.2773C47.9766 13.2122 48.1589 13.1406 48.3281 13.0625C48.4974 12.9844 48.5885 12.9193 48.6016 12.8672C48.6927 12.5026 48.7383 12.0078 48.7383 11.3828V3.62891C48.7383 3.32943 48.7253 3.0625 48.6992 2.82812C48.6862 2.59375 48.6667 2.39193 48.6406 2.22266C48.5885 2.01432 48.25 1.91016 47.625 1.91016H47.4492C47.3711 1.91016 47.332 1.77995 47.332 1.51953C47.332 1.29818 47.3711 1.1875 47.4492 1.1875C48.2044 1.1224 48.9141 1.01172 49.5781 0.855469C50.2552 0.699219 50.737 0.575521 51.0234 0.484375L51.2188 0.425781H51.2578C51.3099 0.425781 51.362 0.464844 51.4141 0.542969C51.4661 0.621094 51.4987 0.692708 51.5117 0.757812C51.3555 1.34375 51.2773 2.0013 51.2773 2.73047V6.36328C51.2773 6.45443 51.3034 6.5 51.3555 6.5C51.3685 6.5 51.401 6.47396 51.4531 6.42188C51.7396 6.09635 52.1432 5.82943 52.6641 5.62109C53.1849 5.39974 53.7253 5.28906 54.2852 5.28906C55.0404 5.28906 55.6523 5.60807 56.1211 6.24609C56.6029 6.88411 56.8438 7.85417 56.8438 9.15625V11.0898C56.8438 11.9492 56.8893 12.5417 56.9805 12.8672C57.0065 12.9193 57.1042 12.9844 57.2734 13.0625C57.4427 13.1406 57.6185 13.2122 57.8008 13.2773C57.9961 13.3294 58.1328 13.3555 58.2109 13.3555C58.237 13.3555 58.2565 13.4076 58.2695 13.5117C58.2826 13.6159 58.2891 13.7266 58.2891 13.8438C58.2891 13.9609 58.276 14.0391 58.25 14.0781C58.1719 14.0781 58.0221 14.0651 57.8008 14.0391C57.5794 14.026 57.319 14.013 57.0195 14C56.7331 13.974 56.4596 13.9544 56.1992 13.9414C55.9388 13.9284 55.7305 13.9219 55.5742 13.9219C55.3659 13.9219 55.0729 13.9349 54.6953 13.9609C54.3307 13.987 53.9792 14.0065 53.6406 14.0195C53.3021 14.0456 53.0807 14.0651 52.9766 14.0781C52.9245 14.026 52.8984 13.8893 52.8984 13.668C52.8984 13.4596 52.9245 13.3555 52.9766 13.3555C53.0807 13.3555 53.2174 13.3294 53.3867 13.2773C53.569 13.2122 53.7383 13.1406 53.8945 13.0625C54.0638 12.9844 54.1549 12.9193 54.168 12.8672C54.2591 12.5026 54.3047 12.0078 54.3047 11.3828V9.625C54.3047 8.66146 54.1745 7.97786 53.9141 7.57422C53.6536 7.15755 53.2305 6.94922 52.6445 6.94922C51.7331 6.94922 51.2773 7.23568 51.2773 7.80859V11.0898C51.2773 11.9492 51.3229 12.5417 51.4141 12.8672C51.4401 12.9193 51.5312 12.9844 51.6875 13.0625C51.8438 13.1406 52.013 13.2122 52.1953 13.2773C52.3776 13.3294 52.5013 13.3555 52.5664 13.3555C52.5924 13.3555 52.612 13.4076 52.625 13.5117C52.638 13.6159 52.6445 13.7266 52.6445 13.8438C52.6445 13.9609 52.6315 14.0391 52.6055 14.0781C52.5013 14.0651 52.2799 14.0456 51.9414 14.0195C51.6029 14.0065 51.2448 13.987 50.8672 13.9609C50.5026 13.9349 50.2161 13.9219 50.0078 13.9219C49.8516 13.9219 49.6367 13.9284 49.3633 13.9414C49.1029 13.9544 48.8294 13.974 48.543 14C48.2565 14.013 48.0026 14.026 47.7812 14.0391C47.5599 14.0651 47.4102 14.0781 47.332 14.0781ZM65.3008 14.0977C64.2461 14.0977 63.3216 13.8828 62.5273 13.4531C61.7331 13.0104 61.1146 12.3333 60.6719 11.4219C60.2422 10.5104 60.0273 9.34505 60.0273 7.92578V3.80469C60.0273 2.97135 59.9753 2.46354 59.8711 2.28125C59.832 2.20312 59.7279 2.13151 59.5586 2.06641C59.4023 1.98828 59.2396 1.92318 59.0703 1.87109C58.901 1.81901 58.7643 1.79297 58.6602 1.79297C58.6081 1.79297 58.582 1.68229 58.582 1.46094C58.582 1.22656 58.5951 1.09635 58.6211 1.07031L61.4531 1.1875C61.5833 1.20052 61.8763 1.19401 62.332 1.16797C62.7878 1.14193 63.4062 1.10938 64.1875 1.07031C64.2266 1.1875 64.2461 1.30469 64.2461 1.42188C64.2461 1.66927 64.2201 1.79297 64.168 1.79297C64.0898 1.79297 63.9531 1.81901 63.7578 1.87109C63.5625 1.92318 63.3737 1.98828 63.1914 2.06641C63.0221 2.13151 62.9245 2.19661 62.8984 2.26172C62.8073 2.58724 62.7617 3.14062 62.7617 3.92188V8.55078C62.7617 9.7487 63.0286 10.7122 63.5625 11.4414C64.1094 12.1706 64.8451 12.5352 65.7695 12.5352C66.7331 12.5352 67.5208 12.2227 68.1328 11.5977C68.7578 10.9596 69.0703 9.89844 69.0703 8.41406V3.76562C69.0703 3.01042 68.9857 2.54167 68.8164 2.35938C68.7383 2.25521 68.5951 2.16406 68.3867 2.08594C68.1914 1.99479 67.9831 1.92318 67.7617 1.87109C67.5534 1.81901 67.3971 1.79297 67.293 1.79297C67.2669 1.79297 67.2409 1.74089 67.2148 1.63672C67.2018 1.53255 67.1953 1.42188 67.1953 1.30469C67.1953 1.17448 67.2083 1.09635 67.2344 1.07031C67.8333 1.1224 68.3477 1.16146 68.7773 1.1875C69.207 1.21354 69.5521 1.22656 69.8125 1.22656C70.0339 1.22656 70.3138 1.21354 70.6523 1.1875C70.9909 1.16146 71.3099 1.13542 71.6094 1.10938C71.9219 1.08333 72.1302 1.07031 72.2344 1.07031C72.2865 1.16146 72.3125 1.27865 72.3125 1.42188C72.3125 1.66927 72.2799 1.79297 72.2148 1.79297C71.5117 1.79297 70.9714 2.00781 70.5938 2.4375C70.4115 2.65885 70.3203 3.13411 70.3203 3.86328V8.31641C70.3203 9.57943 70.1055 10.6406 69.6758 11.5C69.2591 12.3594 68.6732 13.0104 67.918 13.4531C67.1628 13.8828 66.2904 14.0977 65.3008 14.0977ZM73.2305 14.0781C73.1784 14.026 73.1523 13.9023 73.1523 13.707C73.1523 13.5117 73.1784 13.4141 73.2305 13.4141C73.3346 13.4141 73.4714 13.388 73.6406 13.3359C73.8099 13.2839 73.9727 13.2188 74.1289 13.1406C74.2852 13.0625 74.3698 12.9909 74.3828 12.9258C74.474 12.5612 74.5195 12.0664 74.5195 11.4414V8.58984C74.5195 7.86068 74.4023 7.3724 74.168 7.125C74.0638 6.99479 73.9206 6.90365 73.7383 6.85156C73.569 6.79948 73.4193 6.76693 73.2891 6.75391C73.1589 6.72786 73.0938 6.70182 73.0938 6.67578C73.0938 6.29818 73.1263 6.10938 73.1914 6.10938C73.3086 6.10938 73.5234 6.08333 73.8359 6.03125C74.1484 5.97917 74.4935 5.91406 74.8711 5.83594C75.2617 5.75781 75.6263 5.67969 75.9648 5.60156C76.3164 5.52344 76.5833 5.45833 76.7656 5.40625L76.9805 5.34766C77.0456 5.34766 77.1107 5.39323 77.1758 5.48438C77.2409 5.5625 77.2734 5.6276 77.2734 5.67969C77.2083 6.2526 77.1562 6.70182 77.1172 7.02734C77.0781 7.35286 77.0586 7.55469 77.0586 7.63281V11.1484C77.0586 11.8906 77.1107 12.4831 77.2148 12.9258C77.2409 12.9779 77.3255 13.043 77.4688 13.1211C77.625 13.1992 77.7878 13.2708 77.957 13.3359C78.1263 13.388 78.2435 13.4141 78.3086 13.4141C78.3477 13.4141 78.3672 13.5117 78.3672 13.707C78.3802 13.9023 78.3737 14.026 78.3477 14.0781C78.2435 14.0651 78.0221 14.0456 77.6836 14.0195C77.3581 14.0065 77.013 13.987 76.6484 13.9609C76.2839 13.9349 75.9974 13.9219 75.7891 13.9219C75.5807 13.9219 75.2943 13.9349 74.9297 13.9609C74.5651 13.987 74.2201 14.0065 73.8945 14.0195C73.569 14.0456 73.3477 14.0651 73.2305 14.0781ZM75.6914 3.41406C75.2878 3.41406 74.9427 3.27734 74.6562 3.00391C74.3828 2.71745 74.2461 2.3724 74.2461 1.96875C74.2461 1.5651 74.3828 1.22656 74.6562 0.953125C74.9427 0.666667 75.2878 0.523438 75.6914 0.523438C76.0951 0.523438 76.4336 0.666667 76.707 0.953125C76.9935 1.22656 77.1367 1.5651 77.1367 1.96875C77.1367 2.3724 76.9935 2.71745 76.707 3.00391C76.4336 3.27734 76.0951 3.41406 75.6914 3.41406Z" fill="#0EA5E9" />
</svg>