<svg xmlns="http://www.w3.org/2000/svg" width="518" height="101" viewBox="0 0 518 101" fill="none">
<path d="M8.25 99C2.91667 99 0.25 96.7708 0.25 92.3125C0.25 90.8958 0.520833 89.5417 1.0625 88.25C1.60417 86.9167 2.58333 85.2917 4 83.375L46.9375 25.8125H11.1875C10.1875 25.8125 9.4375 25.6458 8.9375 25.3125C7.85417 24.5625 6.72917 23.6667 5.5625 22.625C4.4375 21.5833 3.20833 20.3333 1.875 18.875C1.45833 18.3333 1.25 17.8958 1.25 17.5625C1.25 17.1875 1.45833 16.7708 1.875 16.3125C3.20833 14.8542 4.4375 13.6042 5.5625 12.5625C6.72917 11.5208 7.85417 10.625 8.9375 9.875C9.52083 9.54167 10.2708 9.375 11.1875 9.375H65.4375C70.8958 9.375 73.625 11.625 73.625 16.125C73.625 17.7083 73.3125 19.1667 72.6875 20.5C72.0625 21.8333 71.1458 23.3333 69.9375 25L27.25 82.625L66.3125 82.5625C67.3125 82.5625 68.0625 82.7292 68.5625 83.0625C69.6458 83.8125 70.7708 84.7083 71.9375 85.75C73.1042 86.7917 74.3333 88.0417 75.625 89.5C76.0417 90.0417 76.25 90.4792 76.25 90.8125C76.25 91.1875 76.0417 91.6042 75.625 92.0625C74.3333 93.5208 73.1042 94.7708 71.9375 95.8125C70.7708 96.8542 69.6458 97.75 68.5625 98.5C67.9792 98.8333 67.2292 99 66.3125 99H8.25ZM117.312 100.562C110.271 100.562 104.146 99.4375 98.9375 97.1875C93.7292 94.8958 89.6875 91.3542 86.8125 86.5625C83.9375 81.7708 82.5 75.5833 82.5 68C82.5 56.625 85.4167 48.0208 91.25 42.1875C97.0833 36.3542 104.833 33.4375 114.5 33.4375C120.792 33.4375 126.104 34.5625 130.438 36.8125C134.812 39.0625 138.125 42.1667 140.375 46.125C142.667 50.0833 143.812 54.6042 143.812 59.6875C143.812 64.6458 142.542 68.1042 140 70.0625C137.458 72.0208 133.75 73 128.875 73H102.062C102.396 77.2917 103.958 80.5625 106.75 82.8125C109.583 85.0625 113.417 86.1875 118.25 86.1875C122.083 86.1875 125.146 85.625 127.438 84.5C129.771 83.3333 131.396 82.4167 132.312 81.75C133.104 81.1667 134 80.8958 135 80.9375C135.792 80.9375 136.917 81.1042 138.375 81.4375C139.875 81.7292 141.354 82.2917 142.812 83.125C143.854 83.6667 144.375 84.4167 144.375 85.375C144.375 85.9167 144.271 86.6875 144.062 87.6875C143.938 88.2708 143.729 89.125 143.438 90.25C143.146 91.3333 142.771 92.3542 142.312 93.3125C142.062 93.7708 141.667 94.2083 141.125 94.625C140.292 95.2083 138.938 95.9792 137.062 96.9375C135.229 97.8958 132.708 98.7292 129.5 99.4375C126.292 100.188 122.229 100.562 117.312 100.562ZM101.938 60.1875H122.312C124.438 60.1875 125.5 59.2083 125.5 57.25C125.5 54.2917 124.562 51.8125 122.688 49.8125C120.854 47.7708 118.083 46.75 114.375 46.75C110.333 46.75 107.354 48.0417 105.438 50.625C103.562 53.2083 102.396 56.3958 101.938 60.1875ZM219.438 59.1875V95.6875C219.438 96.9375 219.167 97.8125 218.625 98.3125C218.125 98.7708 217.25 99 216 99H203.125C201.875 99 200.979 98.7708 200.438 98.3125C199.938 97.8125 199.688 96.9375 199.688 95.6875V62.4375C199.688 57.8958 198.729 54.5833 196.812 52.5C194.896 50.4167 192.292 49.375 189 49.375C185.708 49.375 183.167 50.0833 181.375 51.5C179.625 52.9167 178.271 54.7083 177.312 56.875V95.6875C177.312 96.9375 177.042 97.8125 176.5 98.3125C176 98.7708 175.125 99 173.875 99H161C159.75 99 158.854 98.7708 158.312 98.3125C157.812 97.8125 157.562 96.9375 157.562 95.6875V43.3125C157.562 42.3125 157.771 41.5417 158.188 41C159.062 39.8333 160.104 38.6458 161.312 37.4375C162.562 36.2292 164.083 34.9375 165.875 33.5625C166.417 33.1458 166.938 32.9375 167.438 32.9375C167.896 32.9375 168.417 33.1458 169 33.5625C170.75 34.9375 172.25 36.25 173.5 37.5C174.75 38.75 175.854 40.0417 176.812 41.375H177.125C177.833 40.4583 178.896 39.3958 180.312 38.1875C181.729 36.9375 183.708 35.8333 186.25 34.875C188.833 33.9167 192.125 33.4375 196.125 33.4375C200.042 33.4375 203.771 34.2292 207.312 35.8125C210.854 37.3958 213.75 40.0625 216 43.8125C218.292 47.5625 219.438 52.6875 219.438 59.1875ZM233.438 14C233.438 13.4583 233.604 12.9792 233.938 12.5625C234.271 12.1458 234.708 11.6042 235.25 10.9375C236.417 9.60417 237.771 8.20833 239.312 6.75C240.854 5.25 242.417 3.8125 244 2.4375C245 1.64583 245.75 1.25 246.25 1.25C246.75 1.25 247.521 1.64583 248.562 2.4375C251.938 5.35417 254.812 8.1875 257.188 10.9375C257.729 11.5625 258.167 12.1042 258.5 12.5625C258.875 12.9792 259.062 13.4583 259.062 14C259.062 14.5417 258.875 15.0208 258.5 15.4375C258.167 15.8542 257.708 16.4167 257.125 17.125C256 18.4167 254.688 19.8125 253.188 21.3125C251.688 22.7708 250.146 24.1667 248.562 25.5C247.979 26 247.521 26.3333 247.188 26.5C246.854 26.625 246.542 26.6875 246.25 26.6875C245.958 26.6875 245.646 26.625 245.312 26.5C245.021 26.3333 244.542 26 243.875 25.5C242.208 24.1667 240.646 22.7708 239.188 21.3125C237.729 19.8125 236.417 18.375 235.25 17C234.708 16.3333 234.271 15.8125 233.938 15.4375C233.604 15.0208 233.438 14.5417 233.438 14ZM256.062 95.6875C256.062 96.9375 255.792 97.8125 255.25 98.3125C254.75 98.7708 253.875 99 252.625 99H239.75C238.5 99 237.604 98.7708 237.062 98.3125C236.562 97.8125 236.312 96.9375 236.312 95.6875V38.3125C236.312 37.0625 236.562 36.2083 237.062 35.75C237.604 35.25 238.5 35 239.75 35H252.625C253.875 35 254.75 35.25 255.25 35.75C255.792 36.2083 256.062 37.0625 256.062 38.3125V95.6875ZM298.375 100.562C284.458 100.562 277.5 93.3333 277.5 78.875V49.5625H270.438C269.188 49.5625 268.312 49.3125 267.812 48.8125C267.354 48.2708 267.125 47.375 267.125 46.125V38.4375C267.125 37.1875 267.354 36.3125 267.812 35.8125C268.312 35.2708 269.188 35 270.438 35H277.5V24.9375C277.5 23.9375 277.708 23.1667 278.125 22.625C279.875 20.3333 282.438 17.8542 285.812 15.1875C286.396 14.7708 286.917 14.5625 287.375 14.5625C287.875 14.5625 288.375 14.7708 288.875 15.1875C290.667 16.5625 292.167 17.8542 293.375 19.0625C294.625 20.2708 295.688 21.4583 296.562 22.625C296.979 23.1667 297.188 23.9375 297.188 24.9375V35H308.25C309.5 35 310.354 35.2708 310.812 35.8125C311.312 36.3125 311.562 37.1875 311.562 38.4375V46.125C311.562 47.375 311.312 48.2708 310.812 48.8125C310.354 49.3125 309.5 49.5625 308.25 49.5625H297.188V75.4375C297.188 82.1042 299.604 85.4375 304.438 85.4375C305.188 85.4375 305.875 85.375 306.5 85.25C307.125 85.0833 307.667 84.9167 308.125 84.75C309 84.4167 309.604 84.2917 309.938 84.375C310.312 84.4583 310.646 84.9167 310.938 85.75L314.562 95.4375C314.938 96.4792 314.688 97.2292 313.812 97.6875C313.188 97.9792 311.667 98.5208 309.25 99.3125C306.875 100.146 303.25 100.562 298.375 100.562ZM344.812 95.6875C344.812 96.9375 344.542 97.8125 344 98.3125C343.5 98.7708 342.625 99 341.375 99H328.5C327.25 99 326.354 98.7708 325.812 98.3125C325.312 97.8125 325.062 96.9375 325.062 95.6875V11.125C325.062 10.125 325.271 9.35417 325.688 8.8125C327.438 6.52083 330 4.04167 333.375 1.375C333.958 0.958333 334.479 0.75 334.938 0.75C335.479 0.75 336 0.958333 336.5 1.375C338.292 2.75 339.792 4.04167 341 5.25C342.25 6.45833 343.312 7.64583 344.188 8.8125C344.604 9.35417 344.812 10.125 344.812 11.125V41.4375H345.062C345.979 40.2292 347.167 39.0208 348.625 37.8125C350.083 36.5625 352.021 35.5208 354.438 34.6875C356.896 33.8542 360.021 33.4375 363.812 33.4375C367.646 33.4375 371.333 34.2292 374.875 35.8125C378.417 37.3958 381.312 40.0625 383.562 43.8125C385.812 47.5625 386.938 52.6875 386.938 59.1875V95.6875C386.938 96.9375 386.667 97.8125 386.125 98.3125C385.625 98.7708 384.75 99 383.5 99H370.625C369.375 99 368.479 98.7708 367.938 98.3125C367.438 97.8125 367.188 96.9375 367.188 95.6875V62.625C367.188 58 366.229 54.6458 364.312 52.5625C362.396 50.4375 359.792 49.375 356.5 49.375C353.25 49.375 350.729 50.0833 348.938 51.5C347.146 52.9167 345.771 54.7083 344.812 56.875V95.6875ZM441.625 100.5C433.792 100.5 427.104 99.4792 421.562 97.4375C416.062 95.3958 411.854 91.8125 408.938 86.6875C406.062 81.5625 404.625 74.375 404.625 65.125V19.375C404.625 18.1667 404.833 17.25 405.25 16.625C407.125 13.875 409.75 10.9792 413.125 7.9375C413.75 7.4375 414.292 7.1875 414.75 7.1875C415.25 7.1875 415.771 7.4375 416.312 7.9375C418.146 9.52083 419.688 11.0417 420.938 12.5C422.188 13.9167 423.271 15.2917 424.188 16.625C424.604 17.2917 424.812 18.2083 424.812 19.375V62C424.812 67.9583 425.438 72.5 426.688 75.625C427.979 78.7083 429.875 80.8125 432.375 81.9375C434.875 83.0625 437.958 83.625 441.625 83.625C445.375 83.625 448.5 83.0625 451 81.9375C453.5 80.8125 455.375 78.7083 456.625 75.625C457.875 72.5 458.5 67.9583 458.5 62V19.375C458.5 18.1667 458.708 17.25 459.125 16.625C461 13.875 463.625 10.9792 467 7.9375C467.625 7.4375 468.167 7.1875 468.625 7.1875C469.125 7.1875 469.646 7.4375 470.188 7.9375C472.021 9.52083 473.562 11.0417 474.812 12.5C476.062 13.9167 477.146 15.2917 478.062 16.625C478.479 17.2917 478.688 18.2083 478.688 19.375V65.125C478.688 74.375 477.104 81.5625 473.938 86.6875C470.771 91.8125 466.396 95.3958 460.812 97.4375C455.271 99.4792 448.875 100.5 441.625 100.5ZM491.688 14C491.688 13.4583 491.854 12.9792 492.188 12.5625C492.521 12.1458 492.958 11.6042 493.5 10.9375C494.667 9.60417 496.021 8.20833 497.562 6.75C499.104 5.25 500.667 3.8125 502.25 2.4375C503.25 1.64583 504 1.25 504.5 1.25C505 1.25 505.771 1.64583 506.812 2.4375C510.188 5.35417 513.062 8.1875 515.438 10.9375C515.979 11.5625 516.417 12.1042 516.75 12.5625C517.125 12.9792 517.312 13.4583 517.312 14C517.312 14.5417 517.125 15.0208 516.75 15.4375C516.417 15.8542 515.958 16.4167 515.375 17.125C514.25 18.4167 512.938 19.8125 511.438 21.3125C509.938 22.7708 508.396 24.1667 506.812 25.5C506.229 26 505.771 26.3333 505.438 26.5C505.104 26.625 504.792 26.6875 504.5 26.6875C504.208 26.6875 503.896 26.625 503.562 26.5C503.271 26.3333 502.792 26 502.125 25.5C500.458 24.1667 498.896 22.7708 497.438 21.3125C495.979 19.8125 494.667 18.375 493.5 17C492.958 16.3333 492.521 15.8125 492.188 15.4375C491.854 15.0208 491.688 14.5417 491.688 14ZM514.312 95.6875C514.312 96.9375 514.042 97.8125 513.5 98.3125C513 98.7708 512.125 99 510.875 99H498C496.75 99 495.854 98.7708 495.312 98.3125C494.812 97.8125 494.562 96.9375 494.562 95.6875V38.3125C494.562 37.0625 494.812 36.2083 495.312 35.75C495.854 35.25 496.75 35 498 35H510.875C512.125 35 513 35.25 513.5 35.75C514.042 36.2083 514.312 37.0625 514.312 38.3125V95.6875Z" fill="#0EA5E9"/>
</svg>